<svg width="221" height="38" viewBox="0 0 221 38" fill="none" xmlns="http://www.w3.org/2000/svg">
<path d="M209.399 28.2479V6.31693H198.787L198.654 10.8269C198.566 12.7429 198.433 14.5558 198.256 16.2655C198.109 17.9751 197.873 19.5374 197.549 20.9523C197.225 22.3377 196.797 23.5168 196.267 24.4896C195.766 25.4623 195.132 26.155 194.365 26.5677L186.716 25.5949C187.777 25.6244 188.647 25.256 189.325 24.4896C190.032 23.7232 190.592 22.6472 191.005 21.2618C191.418 19.8469 191.713 18.1962 191.889 16.3097C192.096 14.4231 192.243 12.3745 192.332 10.1637L192.685 0.480469H216.473V28.2479H209.399ZM185.699 37.8427L185.743 25.5949H220.806V37.8427H214.174V31.4314H192.332V37.8427H185.699Z" fill="white"/>
<path d="M141.165 31.4314L131.526 16.5307L137.318 13.0377L149.301 31.4314H141.165ZM121.047 31.4314V0.480469H128.166V31.4314H121.047ZM126.087 18.9626V12.9935H136.876V18.9626H126.087ZM137.981 16.7518L131.393 15.9559L141.43 0.480469H148.991L137.981 16.7518Z" fill="white"/>
<path d="M93.6942 0.480469H100.857V31.4314H93.6942V0.480469ZM79.6336 31.4314H72.4707V0.480469H79.6336V31.4314ZM94.2248 18.7415H79.103V12.684H94.2248V18.7415Z" fill="white"/>
<path d="M36.1582 31.4314V0.480469H43.2769V20.6428L58.0449 0.480469H64.7657V31.4314H57.6912V11.3133L42.9232 31.4314H36.1582Z" fill="white"/>
<path d="M0.273438 31.4314V0.480469H28.483V31.4314H21.3643V4.68096L23.0003 6.31693H5.75618L7.39215 4.68096V31.4314H0.273438Z" fill="white"/>
<path fill-rule="evenodd" clip-rule="evenodd" d="M163.893 9.77075V0H171.102V9.77075L180.114 4.56806L183.718 10.8113L174.707 16.014L183.684 21.197L180.079 27.4402L171.102 22.2572V31.9121H163.893V22.2572L154.916 27.4402L151.311 21.197L160.289 16.014L151.277 10.8113L154.882 4.56806L163.893 9.77075Z" fill="#33D3D4"/>
</svg>
